<svg version="1.1" id="Layer_1" xmlns="http://www.w3.org/2000/svg" x="0" y="0" viewBox="0 0 395 72" xml:space="preserve"><style>.st0{fill:#59595b}</style><path class="st0" d="M140.2 38.6c-2.7 2.3-6.8 3.4-12.1 3.4-5.1 0-9.1-1.1-12.1-3.2-3-2.2-4.6-5.5-5-10h8.7c.3 2.2 1.2 3.8 2.6 4.8 1.4 1 3.4 1.5 6.1 1.5 2.6 0 4.4-.5 5.4-1.5s1.5-2.2 1.5-3.7c0-1.2-.4-2.2-1.1-3.1-.7-.9-2.2-1.5-4.4-1.8l-5.3-1c-4.3-.8-7.5-2.1-9.6-3.9-2.1-1.8-3.2-4.5-3.2-8 0-2.6.7-4.8 2-6.6 1.3-1.8 3.2-3.1 5.6-4.1 2.4-.9 5.2-1.4 8.3-1.4 3.5 0 6.3.5 8.5 1.5s3.9 2.3 5.1 4c1.2 1.7 1.9 3.7 2.2 5.9l-8.5 1.1c-.5-1.9-1.3-3.2-2.3-4.1-1.1-.9-2.8-1.3-5.2-1.3-2.5 0-4.4.4-5.4 1.3-1.1.9-1.6 2-1.6 3.3s.4 2.4 1.2 3.1c.8.7 2.3 1.3 4.3 1.7l5.5 1.1c4.4.9 7.7 2.2 9.7 4.1 2 1.9 3 4.5 3 8 .2 3.5-1.2 6.6-3.9 8.9zM158.3 8.7h-12.2V1h33.3v7.7h-12.3V41h-8.8V8.7zM190.1 1h10.4l14.2 40h-9.1l-3-8.8h-15l-3 8.8h-8.8l14.3-40zm10.4 24l-5.4-16.3-5.3 16.3h10.7zM223.4 8.7h-12.2V1h33.3v7.7h-12.3V41h-8.8V8.7zM248.5 1h8.8v15.4h15.6V1h8.8v40h-8.8V24.3h-15.6V41h-8.8V1zM287.3 1H315v7.1h-19V17h17.9v7.1H296v9.7h20.2l-.9 7.1h-28V1zM332.4 1h10.4L357 41h-9.1l-3-8.8h-15l-3 8.8h-8.8l14.3-40zm10.4 24l-5.4-16.3-5.3 16.3h10.7zM360.1 1h15.2c6.3 0 11.2 1.6 14.6 4.9s5.1 8.2 5.1 14.8-1.8 11.7-5.3 15.1c-3.6 3.4-8.6 5.2-15 5.2h-14.5V1h-.1zM375 33.6c3.8 0 6.5-1.1 8.3-3.3s2.7-5.3 2.7-9.4c0-4-.8-7.1-2.5-9.2s-4.3-3.2-7.9-3.2h-6.7v25.1h6.1z"/><g><path class="st0" d="M112.8 47.6H125c7.2 0 10.8 2 10.8 6.1 0 2.6-1.5 4.3-4.5 5.1 3.7 1.1 5.6 3 5.6 5.7 0 2.2-1 4-2.9 5.1-1.9 1.2-4.7 1.8-8.4 1.8h-12.7V47.6h-.1zm12.4 10c2.3 0 3.9-.3 5-.9s1.6-1.5 1.6-2.8c0-1.2-.6-2.1-1.7-2.6s-2.9-.8-5.4-.8h-8.2v7.2l8.7-.1zm.1 11c2.7 0 4.6-.3 5.8-.9s1.8-1.7 1.8-3.1c0-2.8-2.5-4.2-7.4-4.2h-9v8.2h8.8zM151.3 47.6h3.9l13.3 23.8h-4.2l-3.6-6.6h-15l-3.6 6.6H138l13.3-23.8zm7.9 14.5l-6.1-11-6.1 11h12.2zM169.8 64.5h3.9c.4 1.6 1.3 2.7 2.9 3.5 1.6.8 3.8 1.1 6.8 1.1 2.7 0 4.7-.3 6.1-1 1.4-.7 2.1-1.7 2.1-3 0-1.1-.5-2-1.5-2.6s-2.6-1.1-4.7-1.3l-4.8-.6c-2.5-.3-4.4-.8-5.9-1.3-1.5-.6-2.6-1.3-3.3-2.2-.7-.9-1-2-1-3.4 0-2.1 1.1-3.7 3.3-4.8 2.2-1.2 5.2-1.7 9-1.7 3.5 0 6.2.5 8.1 1.5 1.9 1 3.2 2.6 4 4.7l-3.6.6c-.6-1.4-1.6-2.4-2.9-3-1.3-.6-3.2-.9-5.5-.9-2.7 0-4.8.3-6.3.9s-2.2 1.5-2.2 2.7c0 1.1.5 2 1.5 2.6s2.7 1 5.2 1.3l5.3.7c3.2.4 5.5 1.2 7 2.3 1.5 1.2 2.3 2.7 2.3 4.7 0 2.2-1.1 3.8-3.2 5.1-2.1 1.2-5.1 1.8-9 1.8-8.4-.2-12.9-2.7-13.6-7.7zM200.4 47.6h21.8v2.9h-18v7.2h17.1v2.9h-17.1v7.9H223l-.7 2.9h-21.9V47.6zM228.5 47.6h12.2c7.2 0 10.8 2 10.8 6.1 0 2.6-1.5 4.3-4.5 5.1 3.7 1.1 5.6 3 5.6 5.7 0 2.2-1 4-2.9 5.1-1.9 1.2-4.7 1.8-8.4 1.8h-12.8V47.6zm12.4 10c2.3 0 3.9-.3 5-.9s1.6-1.5 1.6-2.8c0-1.2-.6-2.1-1.7-2.6s-2.9-.8-5.4-.8h-8.3v7.2l8.8-.1zm.1 11c2.7 0 4.6-.3 5.8-.9 1.2-.6 1.8-1.7 1.8-3.1 0-2.8-2.5-4.2-7.4-4.2h-8.9v8.2h8.7zM267.4 47.6h3.9l13.3 23.8h-4.2l-3.6-6.6h-15l-3.6 6.6h-4.1l13.3-23.8zm7.9 14.5l-6.1-11-6.1 11h12.2zM288.8 47.6h3.8v20.9h17.9l-.7 2.9h-21.1V47.6h.1zM315.3 47.6h3.8v20.9H337l-.7 2.9h-21.1V47.6h.1z"/></g><g><path d="M102.3 0v72s-14.9-10.1-37-10.1c-17.8 0-55.2 3-65.2-45.9 0 0 6.8 5.9 20.7 5.9C43.3 22 50.6 0 102.3 0z" fill="#fff"/><path d="M74.4 9.6c1-.1 2.8-.2 4.3-.3-1 1.4-1.9 2.8-2.6 4.3l-4.4.4-1.4-3.8c.9-1.2 1.9-2.4 3-3.5.4 1 .8 2.1 1.1 2.9zm-.6 45.5l4.6-.4.9-4.8c-1.2-1.6-2.3-3.3-3.2-5.1-.3 1.5-.8 4.6-1.1 6.2-1.1.1-3 .3-4.5.4.9 1.3 2.1 2.6 3.3 3.7zm-.4-34.7c.5-1.7 1-3.3 1.7-4.9-1.6.6-3.9 1.4-5.1 1.8-.6-.8-1.5-2.1-2.4-3.3-.8 1.3-1.4 2.7-2 4.2l2.8 4 5-1.8zm-.7 27.4l2.4-5c-.8-1.8-1.4-3.6-1.9-5.5-.6 1.2-2.1 4.5-2.8 6-1.2-.2-3.3-.6-4.9-.8.6 1.6 1.3 3 2 4.5l5.2.8zm-9.3-20.4l4.2 3.5 4.6-3.2c.1-1.8.3-3.7.7-5.4-1.3.9-3.8 2.6-5.1 3.5-.9-.7-2.4-2-3.7-3-.3 1.5-.5 3.1-.7 4.6zm38.9-2.3V0c-9.6 0-17.7.8-24.7 2 11.5 2.7 21.1 11.4 24.7 23.1zM72.8 35.4c-.1-.3-.1-.6-.2-.8-.3-1.6-.4-3.2-.4-4.8-.9 1-3.2 3.8-4.3 5.1-1.1-.5-3.1-1.4-4.6-2.1l.3 3.3.3 1.5 5.1 2.3 3.8-4.5zm-36.3 4.9c-1.5-9.1.9-18 5.9-25C35.3 19.1 29 22 20.7 22 6.7 22 0 16.1 0 16.1c7.6 36.7 30.6 44.2 49.1 45.6-6.5-5.1-11.2-12.6-12.6-21.4zm16.3 5.3c.4-1.7.6-3.5.6-5.2l-3-3.2-4.5 2.3c0 1.6-.2 3.2-.4 4.8 1.4-.7 3.1-1.6 4-2.1.8.9 2.2 2.3 3.3 3.4zm28 6.1c.1 1.7.3 4.1.5 5.4-.8.3-2.2.8-3.5 1.3 1.4 1 2.9 1.9 4.5 2.6l3.2-1.2-.3-4c-1.6-1.2-3.1-2.6-4.4-4.1zm5 13.2c10.3 3 16.5 7.1 16.5 7.1V44.9c-2.7 8.5-8.6 15.7-16.5 20zM49.6 54.6c.8-1.5 1.5-3.1 2-4.8l-1.9-3.6-4.7 1.1c-.4 1.5-.8 3-1.4 4.5 1.4-.3 3.1-.7 4-.9.5.8 1.3 2.3 2 3.7zm-.4-21.2c1 .6 2.7 1.7 4.1 2.5v-.2c-.2-1.7-.5-3.4-.9-5.1l-3.7-2.3-3.7 3.4c.3 1.5.6 3 .8 4.5v.3c1.2-1 2.6-2.3 3.4-3.1zm-5-4.6c.8-1.3 1.9-2.9 2.4-3.8 1 .3 2.9.9 4.4 1.3-.7-1.7-1.5-3.4-2.5-5l-3.7-1.1-2.6 4c.9 1.5 1.5 3 2 4.6z" fill="#9e28b5"/></g></svg>